<?xml version="1.0" encoding="UTF-8"?>
<svg width="24px" height="24px" viewBox="0 0 24 24" version="1.1" xmlns="http://www.w3.org/2000/svg" xmlns:xlink="http://www.w3.org/1999/xlink">
    <!-- Generator: Sketch 61 (89581) - https://sketch.com -->
    <title>bt_radio_uncheck</title>
    <desc>Created with Sketch.</desc>
    <g id="UI-PWA" stroke="none" stroke-width="1" fill="none" fill-rule="evenodd">
        <g id="Checkout-Guest" transform="translate(-16.000000, -203.000000)" fill="#979797" fill-rule="nonzero">
            <g id="Group" transform="translate(16.000000, 203.000000)">
                <g id="Radio_notchecked" transform="translate(1.000000, 1.000000)">
                    <path d="M11,0 C17.0751322,0 22,4.92486775 22,11 C22,17.0751322 17.0751322,22 11,22 C4.92486775,22 0,17.0751322 0,11 C0,4.92486775 4.92486775,0 11,0 Z M11,0.956521739 C5.45314012,0.956521739 0.956521739,5.45314012 0.956521739,11 C0.956521739,16.5468599 5.45314012,21.0434783 11,21.0434783 C16.5468599,21.0434783 21.0434783,16.5468599 21.0434783,11 C21.0434783,5.45314012 16.5468599,0.956521739 11,0.956521739 Z" id="Oval-Copy-4"></path>
                </g>
            </g>
        </g>
    </g>
</svg>