<?xml version="1.0" encoding="UTF-8"?>
<svg width="24px" height="24px" viewBox="0 0 24 24" version="1.1" xmlns="http://www.w3.org/2000/svg" xmlns:xlink="http://www.w3.org/1999/xlink">
    <!-- Generator: Sketch 61 (89581) - https://sketch.com -->
    <title>ic_account</title>
    <desc>Created with Sketch.</desc>
    <g id="UI-PWA" stroke="none" stroke-width="1" fill="none" fill-rule="evenodd">
        <g id="Home" transform="translate(-269.000000, -18.000000)" fill="#30A59C" fill-rule="nonzero">
            <g id="Group-6" transform="translate(269.000000, 18.000000)">
                <g id="bx-bxs-user">
                    <path d="M12.1,1 C15.4374695,1 18.15,3.7125305 18.15,7.05 C18.15,8.70027088 17.4867909,10.1977452 16.4127552,11.2900405 C19.681816,12.3288627 22.0777078,15.3422288 22.1954593,18.9234269 L22.2,19.2 L22.2,22.1 L2,22.1 L2,19.2 C2,15.4975952 4.43427354,12.3549959 7.78723331,11.2883719 C6.71320912,10.1977452 6.05,8.70027088 6.05,7.05 C6.05,3.7125305 8.7625305,1 12.1,1 Z M10.3,12.9 L10.0693839,12.9041641 C6.77833165,13.023191 4.12315279,15.6791738 4.00416277,18.9694413 L4,19.2 L4,20.1 L20.2,20.1 L20.2,19.2 L20.1958359,18.9694413 C20.076809,15.6791738 17.4208262,13.023191 14.1305587,12.9041641 L13.9,12.9 L10.3,12.9 Z M12.1,3 C9.8671,3 8.05,4.8171 8.05,7.05 C8.05,9.2829 9.8671,11.1 12.1,11.1 C12.5059818,11.1 12.8982182,11.0399306 13.2682866,10.9282143 L13.3538289,10.9013446 C14.9750859,10.3721284 16.15,8.84548972 16.15,7.05 C16.15,4.8171 14.3329,3 12.1,3 Z" id="Icon-Shape"></path>
                </g>
            </g>
        </g>
    </g>
</svg>