<?xml version="1.0" encoding="UTF-8"?>
<svg width="24px" height="24px" viewBox="0 0 24 24" version="1.1" xmlns="http://www.w3.org/2000/svg" xmlns:xlink="http://www.w3.org/1999/xlink">
    <!-- Generator: Sketch 61 (89581) - https://sketch.com -->
    <title>ic_back</title>
    <desc>Created with Sketch.</desc>
    <g id="UI-PWA" stroke="none" stroke-width="1" fill="none" fill-rule="evenodd">
        <g id="Detail" transform="translate(-9.000000, -10.000000)">
            <g id="ic_back" transform="translate(9.000000, 10.000000)">
                <rect id="Rectangle" x="0" y="0" width="24" height="24"></rect>
                <path d="M15.5947266,20.3544922 C16.0771484,20.3544922 16.4389648,19.9926758 16.4389648,19.5102539 C16.4389648,19.2783203 16.3461914,19.0649414 16.1977539,18.9072266 L9.44384766,12.3017578 L16.1977539,5.69628906 C16.3461914,5.53857422 16.4389648,5.31591797 16.4389648,5.09326172 C16.4389648,4.61083984 16.0771484,4.23974609 15.5947266,4.23974609 C15.3535156,4.23974609 15.1494141,4.33251953 14.9916992,4.49023438 L7.64404297,11.6801758 C7.46777344,11.8286133 7.36572266,12.0605469 7.36572266,12.3017578 C7.36572266,12.5336914 7.45849609,12.7470703 7.63476562,12.9233398 L14.9916992,20.1040039 C15.1494141,20.2617188 15.3535156,20.3544922 15.5947266,20.3544922 Z" fill-opacity="0.75" fill="#000000" fill-rule="nonzero"></path>
            </g>
        </g>
    </g>
</svg>