<?xml version="1.0" encoding="UTF-8"?>
<svg width="35px" height="34px" viewBox="0 0 35 34" version="1.1" xmlns="http://www.w3.org/2000/svg" xmlns:xlink="http://www.w3.org/1999/xlink">
    <!-- Generator: Sketch 61 (89581) - https://sketch.com -->
    <title>ic_cart_add_white</title>
    <desc>Created with Sketch.</desc>
    <g id="UI-PWA" stroke="none" stroke-width="1" fill="none" fill-rule="evenodd">
        <g id="Add-to-cart" transform="translate(-125.000000, -491.000000)">
            <g id="Group-2" transform="translate(0.000000, 356.000000)">
                <g id="cart" transform="translate(125.000000, 135.000000)">
                    <path d="M16.0426975,7.32129515 L16.1219469,7.41883948 L20.8226923,14 L21.9229324,14.0000777 C22.2427193,14.0000777 22.4792397,14.0328562 22.7236518,14.1815989 L22.8469375,14.266019 C23.299905,14.6103311 23.386838,15.1162609 23.2529871,15.6115629 L23.2529871,15.6115629 L20.3216211,26.6021143 C20.122712,27.3373562 19.6563073,28.0000777 18.8611693,28.0000777 L18.8611693,28.0000777 L5.75513261,28.0000777 C4.91483059,28.0000777 4.51569112,27.3284494 4.29497089,26.5071841 L4.29497089,26.5071841 L1.36342639,15.7185469 C1.10780252,14.7684169 1.76252002,14.0000777 2.69291986,14.0000777 L2.69291986,14.0000777 L3.79269231,14 L8.49448001,7.41883948 C8.815489,6.96942689 9.44003909,6.86533521 9.88945167,7.1863442 C10.3042941,7.48266019 10.4248985,8.03761475 10.1885161,8.4747142 L10.1219469,8.58131587 L6.25069231,14 L18.3646923,14 L14.49448,8.58131587 C14.173471,8.13190328 14.2775627,7.50735319 14.7269753,7.1863442 C15.1418177,6.89002821 15.7058896,6.95592818 16.0426975,7.32129515 Z M21.0792135,16.0000777 L3.51121348,16.0000777 L6.23021348,26.0000777 L18.4112135,26.0000777 L21.0792135,16.0000777 Z M8.08334839,18.0000777 C8.59618423,18.0000777 9.01885555,18.3861179 9.07662066,18.8834565 L9.08334839,19.0000777 L9.08334839,23.0000777 C9.08334839,23.5523624 8.63563314,24.0000777 8.08334839,24.0000777 C7.57051255,24.0000777 7.14784123,23.6140375 7.09007612,23.1166988 L7.08334839,23.0000777 L7.08334839,19.0000777 C7.08334839,18.4477929 7.53106364,18.0000777 8.08334839,18.0000777 Z M16.0833484,18.0000777 C16.5961842,18.0000777 17.0188556,18.3861179 17.0766207,18.8834565 L17.0833484,19.0000777 L17.0833484,23.0000777 C17.0833484,23.5523624 16.6356331,24.0000777 16.0833484,24.0000777 C15.5705126,24.0000777 15.1478412,23.6140375 15.0900761,23.1166988 L15.0833484,23.0000777 L15.0833484,19.0000777 C15.0833484,18.4477929 15.5310636,18.0000777 16.0833484,18.0000777 Z M12.0833484,18.0000777 C12.5961842,18.0000777 13.0188556,18.3861179 13.0766207,18.8834565 L13.0833484,19.0000777 L13.0833484,23.0000777 C13.0833484,23.5523624 12.6356331,24.0000777 12.0833484,24.0000777 C11.5705126,24.0000777 11.1478412,23.6140375 11.0900761,23.1166988 L11.0833484,23.0000777 L11.0833484,19.0000777 C11.0833484,18.4477929 11.5310636,18.0000777 12.0833484,18.0000777 Z" id="ic_cart" fill-opacity="0.75" fill="#000000" fill-rule="nonzero"></path>
                    <circle id="Oval" fill="#FFFFFF" cx="24.1272182" cy="16.7737983" r="9"></circle>
                    <polygon id="+" fill-opacity="0.75" fill="#000000" fill-rule="nonzero" points="24.9655566 21.1089983 24.9655566 17.7321983 28.2583566 17.7321983 28.2583566 16.3713983 24.9655566 16.3713983 24.9655566 12.9777983 23.5879566 12.9777983 23.5879566 16.3713983 20.2951566 16.3713983 20.2951566 17.7321983 23.5879566 17.7321983 23.5879566 21.1089983"></polygon>
                </g>
            </g>
        </g>
    </g>
</svg>