<?xml version="1.0" encoding="UTF-8"?>
<svg width="22px" height="22px" viewBox="0 0 22 22" version="1.1" xmlns="http://www.w3.org/2000/svg" xmlns:xlink="http://www.w3.org/1999/xlink">
    <!-- Generator: Sketch 61 (89581) - https://sketch.com -->
    <title>ic_create</title>
    <desc>Created with Sketch.</desc>
    <g id="UI-PWA" stroke="none" stroke-width="1" fill="none" fill-rule="evenodd">
        <g id="Checkout-Shipping-Delivery" transform="translate(-32.000000, -571.000000)" fill="#30A59C" fill-rule="nonzero">
            <path d="M43,593 C49.0209372,593 54,588.020937 54,582 C54,575.979063 49.0209372,571 42.9890329,571 C36.9680957,571 32,575.979063 32,582 C32,588.020937 36.9790628,593 43,593 Z M42.9780658,587.461615 C42.5174477,587.461615 42.2542373,587.121635 42.2542373,586.65005 L42.2542373,582.734796 L38.2293121,582.734796 C37.7467597,582.734796 37.3958126,582.471585 37.3958126,582.010967 C37.3958126,581.539382 37.7248255,581.254237 38.2293121,581.254237 L42.2542373,581.254237 L42.2542373,577.207378 C42.2542373,576.735793 42.5174477,576.395813 42.9780658,576.395813 C43.449651,576.395813 43.7347956,576.713858 43.7347956,577.207378 L43.7347956,581.254237 L47.7706879,581.254237 C48.2642074,581.254237 48.5932203,581.539382 48.5932203,582.010967 C48.5932203,582.471585 48.2422732,582.734796 47.7706879,582.734796 L43.7347956,582.734796 L43.7347956,586.65005 C43.7347956,587.132602 43.449651,587.461615 42.9780658,587.461615 Z" id="ic_create"></path>
        </g>
    </g>
</svg>