<?xml version="1.0" encoding="UTF-8"?>
<svg width="24px" height="24px" viewBox="0 0 24 24" version="1.1" xmlns="http://www.w3.org/2000/svg" xmlns:xlink="http://www.w3.org/1999/xlink">
    <!-- Generator: Sketch 61 (89581) - https://sketch.com -->
    <title>ic_cart-white</title>
    <desc>Created with Sketch.</desc>
    <g id="UI-PWA" stroke="none" stroke-width="1" fill="none" fill-rule="evenodd">
        <g id="Add-Qty" transform="translate(-11.000000, -520.000000)" fill="#FFFFFF" fill-rule="nonzero">
            <g id="Icon" transform="translate(11.000000, 520.000000)">
                <path d="M15.7350052,2.32129515 L15.8142546,2.41883948 L20.515,9 L21.61524,9.00007767 C21.935027,9.00007767 22.1715474,9.03285622 22.4159595,9.1815989 L22.5392452,9.26601904 C22.9922127,9.61033106 23.0791457,10.1162609 22.9452948,10.6115629 L22.9452948,10.6115629 L20.0139288,21.6021143 C19.8150197,22.3373562 19.348615,23.0000777 18.553477,23.0000777 L18.553477,23.0000777 L5.4474403,23.0000777 C4.60713828,23.0000777 4.20799881,22.3284494 3.98727858,21.5071841 L3.98727858,21.5071841 L1.05573408,10.7185469 C0.800110216,9.76841692 1.45482771,9.00007767 2.38522755,9.00007767 L2.38522755,9.00007767 L3.485,9 L8.1867877,2.41883948 C8.50779669,1.96942689 9.13234678,1.86533521 9.58175936,2.1863442 C9.99660175,2.48266019 10.1172062,3.03761475 9.88082379,3.4747142 L9.81425464,3.58131587 L5.943,9 L18.057,9 L14.1867877,3.58131587 C13.8657787,3.13190328 13.9698704,2.50735319 14.419283,2.1863442 C14.8341254,1.89002821 15.3981973,1.95592818 15.7350052,2.32129515 Z M20.7715212,11.0000777 L3.20352117,11.0000777 L5.92252117,21.0000777 L18.1035212,21.0000777 L20.7715212,11.0000777 Z M7.77565608,13.0000777 C8.28849192,13.0000777 8.71116324,13.3861179 8.76892835,13.8834565 L8.77565608,14.0000777 L8.77565608,18.0000777 C8.77565608,18.5523624 8.32794083,19.0000777 7.77565608,19.0000777 C7.26282025,19.0000777 6.84014892,18.6140375 6.78238382,18.1166988 L6.77565608,18.0000777 L6.77565608,14.0000777 C6.77565608,13.4477929 7.22337133,13.0000777 7.77565608,13.0000777 Z M15.7756561,13.0000777 C16.2884919,13.0000777 16.7111632,13.3861179 16.7689284,13.8834565 L16.7756561,14.0000777 L16.7756561,18.0000777 C16.7756561,18.5523624 16.3279408,19.0000777 15.7756561,19.0000777 C15.2628202,19.0000777 14.8401489,18.6140375 14.7823838,18.1166988 L14.7756561,18.0000777 L14.7756561,14.0000777 C14.7756561,13.4477929 15.2233713,13.0000777 15.7756561,13.0000777 Z M11.7756561,13.0000777 C12.2884919,13.0000777 12.7111632,13.3861179 12.7689284,13.8834565 L12.7756561,14.0000777 L12.7756561,18.0000777 C12.7756561,18.5523624 12.3279408,19.0000777 11.7756561,19.0000777 C11.2628202,19.0000777 10.8401489,18.6140375 10.7823838,18.1166988 L10.7756561,18.0000777 L10.7756561,14.0000777 C10.7756561,13.4477929 11.2233713,13.0000777 11.7756561,13.0000777 Z" id="ic_cart"></path>
            </g>
        </g>
    </g>
</svg>