<?xml version="1.0" encoding="UTF-8"?>
<svg width="22px" height="22px" viewBox="0 0 22 22" version="1.1" xmlns="http://www.w3.org/2000/svg" xmlns:xlink="http://www.w3.org/1999/xlink">
    <!-- Generator: Sketch 61 (89581) - https://sketch.com -->
    <title>ic_checked</title>
    <desc>Created with Sketch.</desc>
    <g id="UI-PWA" stroke="none" stroke-width="1" fill="none" fill-rule="evenodd">
        <g id="Checkout-Shipping-Delivery" transform="translate(-31.000000, -276.000000)" fill="#30A59C" fill-rule="nonzero">
            <path d="M42,298 C48.0209372,298 53,293.020937 53,287 C53,280.979063 48.0209372,276 41.9890329,276 C35.9680957,276 31,280.979063 31,287 C31,293.020937 35.9790628,298 42,298 Z M40.7278166,292.527418 C40.442672,292.527418 40.22333,292.417747 39.9710867,292.121635 L36.6261216,288.09671 C36.4945165,287.932203 36.4177468,287.723829 36.4177468,287.537388 C36.4177468,287.120638 36.7467597,286.824526 37.108674,286.824526 C37.3609172,286.824526 37.5692921,286.912263 37.7666999,287.175474 L40.6949153,290.772682 L46.0907278,282.240279 C46.2552343,281.966102 46.4745763,281.834497 46.7048853,281.834497 C47.0777667,281.834497 47.439681,282.08674 47.439681,282.50349 C47.439681,282.68993 47.3409771,282.887338 47.2313061,283.062812 L41.440678,292.110668 C41.2542373,292.395813 41.0129611,292.527418 40.7278166,292.527418 Z" id="ic_checked"></path>
        </g>
    </g>
</svg>