<?xml version="1.0" encoding="UTF-8"?>
<svg width="24px" height="24px" viewBox="0 0 24 24" version="1.1" xmlns="http://www.w3.org/2000/svg" xmlns:xlink="http://www.w3.org/1999/xlink">
    <!-- Generator: Sketch 61 (89581) - https://sketch.com -->
    <title>ic_close_white</title>
    <desc>Created with Sketch.</desc>
    <g id="UI-PWA" stroke="none" stroke-width="1" fill="none" fill-rule="evenodd">
        <g id="Scan" transform="translate(-345.000000, -451.000000)" fill="#FFFFFF" fill-rule="nonzero">
            <g id="bottom-float" transform="translate(0.000000, 443.000000)">
                <g id="Group-5" transform="translate(345.000000, 8.000000)">
                    <path d="M16.5439453,17.3623047 C16.8378906,17.0546875 16.8447266,16.5556641 16.5439453,16.2617188 L12.3603516,12.0712891 L16.5439453,7.88769531 C16.8447266,7.59375 16.8447266,7.08789062 16.5439453,6.78710938 C16.2363281,6.49316406 15.7373047,6.48632812 15.4433594,6.78027344 L11.2529297,10.9707031 L7.06933594,6.78027344 C6.78222656,6.49316406 6.26269531,6.47949219 5.96875,6.78710938 C5.66796875,7.08789062 5.67480469,7.60058594 5.96191406,7.88769531 L10.1523438,12.0712891 L5.96191406,16.2617188 C5.67480469,16.5488281 5.66113281,17.0615234 5.96875,17.3623047 C6.26953125,17.6630859 6.78222656,17.65625 7.06933594,17.3691406 L11.2529297,13.1787109 L15.4433594,17.3691406 C15.7373047,17.6630859 16.2431641,17.6630859 16.5439453,17.3623047 Z" id="ic_close_white"></path>
                </g>
            </g>
        </g>
    </g>
</svg>