<?xml version="1.0" encoding="UTF-8"?>
<svg width="24px" height="24px" viewBox="0 0 24 24" version="1.1" xmlns="http://www.w3.org/2000/svg" xmlns:xlink="http://www.w3.org/1999/xlink">
    <!-- Generator: Sketch 61 (89581) - https://sketch.com -->
    <title>ic_close</title>
    <desc>Created with Sketch.</desc>
    <g id="UI-PWA" stroke="none" stroke-width="1" fill="none" fill-rule="evenodd" fill-opacity="0.75">
        <g id="Menu-Guest" transform="translate(-11.000000, -14.000000)" fill="#000000" fill-rule="nonzero">
            <g id="Group-9" transform="translate(11.000000, 14.000000)">
                <path d="M19.1279297,19.4658203 C19.5058594,19.0703125 19.5146484,18.4287109 19.1279297,18.0507813 L13.7490234,12.6630859 L19.1279297,7.28417969 C19.5146484,6.90625 19.5146484,6.25585938 19.1279297,5.86914062 C18.7324219,5.49121094 18.0908203,5.48242188 17.7128906,5.86035156 L12.3251953,11.2480469 L6.94628906,5.86035156 C6.57714844,5.49121094 5.90917969,5.47363281 5.53125,5.86914062 C5.14453125,6.25585938 5.15332031,6.91503906 5.52246094,7.28417969 L10.9101562,12.6630859 L5.52246094,18.0507813 C5.15332031,18.4199219 5.13574219,19.0791016 5.53125,19.4658203 C5.91796875,19.8525391 6.57714844,19.84375 6.94628906,19.4746094 L12.3251953,14.0869141 L17.7128906,19.4746094 C18.0908203,19.8525391 18.7412109,19.8525391 19.1279297,19.4658203 Z" id="ic_close"></path>
            </g>
        </g>
    </g>
</svg>