<?xml version="1.0" encoding="UTF-8"?>
<svg width="24px" height="24px" viewBox="0 0 24 24" version="1.1" xmlns="http://www.w3.org/2000/svg" xmlns:xlink="http://www.w3.org/1999/xlink">
    <!-- Generator: Sketch 61 (89581) - https://sketch.com -->
    <title>ic_delete</title>
    <desc>Created with Sketch.</desc>
    <g id="UI-PWA" stroke="none" stroke-width="1" fill="none" fill-rule="evenodd" fill-opacity="0.85">
        <g id="Cart" transform="translate(-318.000000, -140.000000)" fill="#4C4C4C" fill-rule="nonzero">
            <g id="Group-3" transform="translate(8.000000, 52.000000)">
                <g id="Group-9" transform="translate(302.000000, 81.000000)">
                    <g id="Group-10" transform="translate(8.000000, 7.000000)">
                        <path d="M15.925293,21.6904297 C17.2148438,21.6904297 18.059082,20.8833008 18.1240234,19.59375 L18.7270508,6.86523438 L19.7568359,6.86523438 C20.137207,6.86523438 20.4526367,6.54980469 20.4526367,6.16943359 C20.4526367,5.77978516 20.137207,5.46435547 19.7568359,5.46435547 L15.7768555,5.46435547 L15.7768555,4.19335938 C15.7768555,2.90380859 14.9047852,2.06884766 13.5039062,2.06884766 L10.2753906,2.06884766 C8.87451172,2.06884766 8.00244141,2.90380859 8.00244141,4.19335938 L8.00244141,5.46435547 L4.04101562,5.46435547 C3.66064453,5.46435547 3.34521484,5.77978516 3.34521484,6.16943359 C3.34521484,6.54980469 3.66064453,6.86523438 4.04101562,6.86523438 L5.07080078,6.86523438 L5.67382812,19.6030273 C5.72949219,20.8925781 6.57373047,21.6904297 7.87255859,21.6904297 L15.925293,21.6904297 Z M14.3017578,5.46435547 L9.48681641,5.46435547 L9.48681641,4.27685547 C9.48681641,3.78515625 9.84863281,3.43261719 10.3774414,3.43261719 L13.4111328,3.43261719 C13.9399414,3.43261719 14.3017578,3.78515625 14.3017578,4.27685547 L14.3017578,5.46435547 Z M15.7675781,20.2895508 L8.02099609,20.2895508 C7.52001953,20.2895508 7.14892578,19.918457 7.12109375,19.3989258 L6.51806641,6.86523438 L17.2426758,6.86523438 L16.6674805,19.3989258 C16.6489258,19.9277344 16.2871094,20.2895508 15.7675781,20.2895508 Z M14.496582,18.7866211 C14.793457,18.7866211 15.0161133,18.5361328 15.034668,18.1928711 L15.2944336,9.0546875 C15.3037109,8.72070312 15.0717773,8.45166016 14.765625,8.45166016 C14.4780273,8.45166016 14.2368164,8.72070312 14.2275391,9.04541016 L13.9677734,18.1835938 C13.9584961,18.5175781 14.1811523,18.7866211 14.496582,18.7866211 Z M9.30126953,18.7866211 C9.60742188,18.7866211 9.83935547,18.5175781 9.83007812,18.1835938 L9.5703125,9.04541016 C9.56103516,8.72070312 9.31054688,8.45166016 9.03222656,8.45166016 C8.71679688,8.45166016 8.49414062,8.71142578 8.50341797,9.0546875 L8.76318359,18.1928711 C8.77246094,18.5361328 8.99511719,18.7866211 9.30126953,18.7866211 Z M11.8989258,18.7866211 C12.1958008,18.7866211 12.4462891,18.5175781 12.4462891,18.1835938 L12.4462891,9.0546875 C12.4462891,8.72070312 12.1958008,8.45166016 11.8989258,8.45166016 C11.6020508,8.45166016 11.3515625,8.72070312 11.3515625,9.0546875 L11.3515625,18.1835938 C11.3515625,18.5175781 11.6020508,18.7866211 11.8989258,18.7866211 Z" id="ic_delete"></path>
                    </g>
                </g>
            </g>
        </g>
    </g>
</svg>