<?xml version="1.0" encoding="UTF-8"?>
<svg width="24px" height="24px" viewBox="0 0 24 24" version="1.1" xmlns="http://www.w3.org/2000/svg" xmlns:xlink="http://www.w3.org/1999/xlink">
    <!-- Generator: Sketch 61 (89581) - https://sketch.com -->
    <title>ic_expanded-white</title>
    <desc>Created with Sketch.</desc>
    <g id="UI-PWA" stroke="none" stroke-width="1" fill="none" fill-rule="evenodd">
        <g id="Add-Qty" transform="translate(-344.000000, -520.000000)" fill="#FFFFFF" fill-rule="nonzero">
            <g id="Group" transform="translate(344.000000, 520.000000)">
                <path d="M8.04101562,20.2919922 C8.26953125,20.2919922 8.46289062,20.2041016 8.61230469,20.0546875 L15.5820312,13.2431641 C15.7490234,13.0761719 15.8369141,12.8740234 15.8369141,12.6542969 C15.8369141,12.4257812 15.7490234,12.2148438 15.5820312,12.0654297 L8.62109375,5.26269531 C8.46289062,5.10449219 8.26953125,5.01660156 8.04101562,5.01660156 C7.58398438,5.01660156 7.24121094,5.36816406 7.24121094,5.82519531 C7.24121094,6.03613281 7.32910156,6.24707031 7.46972656,6.39648438 L13.8681641,12.6542969 L7.46972656,18.9121094 C7.32910156,19.0615234 7.24121094,19.2636719 7.24121094,19.4833984 C7.24121094,19.9404297 7.58398438,20.2919922 8.04101562,20.2919922 Z" id="ic_expanded-white"></path>
            </g>
        </g>
    </g>
</svg>