<?xml version="1.0" encoding="UTF-8"?>
<svg width="24px" height="24px" viewBox="0 0 24 24" version="1.1" xmlns="http://www.w3.org/2000/svg" xmlns:xlink="http://www.w3.org/1999/xlink">
    <!-- Generator: Sketch 61 (89581) - https://sketch.com -->
    <title>ic_menu</title>
    <desc>Created with Sketch.</desc>
    <g id="UI-PWA" stroke="none" stroke-width="1" fill="none" fill-rule="evenodd">
        <g id="Home" transform="translate(-12.000000, -17.000000)" fill="#30A59C" fill-rule="nonzero">
            <g id="Group-2" transform="translate(12.000000, 17.000000)">
                <path d="M14,15 C14.5522847,15 15,15.4477153 15,16 C15,16.5128358 14.6139598,16.9355072 14.1166211,16.9932723 L14,17 L4,17 C3.44771525,17 3,16.5522847 3,16 C3,15.4871642 3.38604019,15.0644928 3.88337887,15.0067277 L4,15 L14,15 Z M20,8 C20.5522847,8 21,8.44771525 21,9 C21,9.51283584 20.6139598,9.93550716 20.1166211,9.99327227 L20,10 L4,10 C3.44771525,10 3,9.55228475 3,9 C3,8.48716416 3.38604019,8.06449284 3.88337887,8.00672773 L4,8 L20,8 Z" id="ic_menu"></path>
            </g>
        </g>
    </g>
</svg>