<?xml version="1.0" encoding="UTF-8"?>
<svg width="51px" height="52px" viewBox="0 0 51 52" version="1.1" xmlns="http://www.w3.org/2000/svg" xmlns:xlink="http://www.w3.org/1999/xlink">
    <!-- Generator: Sketch 61 (89581) - https://sketch.com -->
    <title>ic_scan_big</title>
    <desc>Created with Sketch.</desc>
    <g id="UI-PWA" stroke="none" stroke-width="1" fill="none" fill-rule="evenodd" fill-opacity="0.85">
        <g id="Home" transform="translate(-79.000000, -238.000000)" fill="#000000" fill-rule="nonzero">
            <g id="Group-3" transform="translate(42.000000, 211.000000)">
                <g id="ic_scan_big">
                    <path d="M85.996875,44.65 C87.15,44.65 87.740625,44.03125 87.740625,42.878125 L87.740625,35.678125 C87.740625,30.25 84.95625,27.465625 79.471875,27.465625 L72.24375,27.465625 C71.11875,27.465625 70.471875,28.084375 70.471875,29.18125 C70.471875,30.30625 71.11875,30.925 72.24375,30.925 L79.3875,30.925 C82.48125,30.925 84.28125,32.6125 84.28125,35.846875 L84.28125,42.878125 C84.28125,44.03125 84.9,44.65 85.996875,44.65 Z M38.915625,44.65 C40.040625,44.65 40.659375,44.03125 40.659375,42.878125 L40.659375,35.846875 C40.659375,32.6125 42.375,30.925 45.525,30.925 L52.66875,30.925 C53.821875,30.925 54.440625,30.30625 54.440625,29.18125 C54.440625,28.084375 53.821875,27.465625 52.66875,27.465625 L45.46875,27.465625 C39.984375,27.465625 37.171875,30.221875 37.171875,35.678125 L37.171875,42.878125 C37.171875,44.03125 37.790625,44.65 38.915625,44.65 Z M51.628125,63.521875 L51.628125,41.95 L49.74375,41.95 L49.74375,63.521875 L51.628125,63.521875 Z M57.84375,63.521875 L57.84375,41.95 L54.103125,41.95 L54.103125,63.521875 L57.84375,63.521875 Z M61.809375,63.521875 L61.809375,41.95 L59.475,41.95 L59.475,63.521875 L61.809375,63.521875 Z M67.490625,63.521875 L67.490625,41.95 L63.890625,41.95 L63.890625,63.521875 L67.490625,63.521875 Z M71.821875,63.521875 L71.821875,41.95 L68.98125,41.95 L68.98125,63.521875 L71.821875,63.521875 Z M74.690625,63.521875 L74.690625,41.95 L72.890625,41.95 L72.890625,63.521875 L74.690625,63.521875 Z M52.66875,78.034375 C53.821875,78.034375 54.440625,77.415625 54.440625,76.290625 C54.440625,75.165625 53.821875,74.546875 52.66875,74.546875 L45.525,74.546875 C42.375,74.546875 40.659375,72.8875 40.659375,69.625 L40.659375,62.59375 C40.659375,61.46875 40.040625,60.821875 38.915625,60.821875 C37.7625,60.821875 37.171875,61.46875 37.171875,62.59375 L37.171875,69.821875 C37.171875,75.25 39.984375,78.034375 45.46875,78.034375 L52.66875,78.034375 Z M79.471875,78.034375 C84.95625,78.034375 87.740625,75.221875 87.740625,69.821875 L87.740625,62.59375 C87.740625,61.46875 87.121875,60.821875 85.996875,60.821875 C84.871875,60.821875 84.28125,61.46875 84.28125,62.59375 L84.28125,69.625 C84.28125,72.8875 82.48125,74.546875 79.3875,74.546875 L72.24375,74.546875 C71.11875,74.546875 70.471875,75.165625 70.471875,76.290625 C70.471875,77.415625 71.11875,78.034375 72.24375,78.034375 L79.471875,78.034375 Z"></path>
                </g>
            </g>
        </g>
    </g>
</svg>