<?xml version="1.0" encoding="UTF-8"?>
<svg width="45px" height="45px" viewBox="0 0 45 45" version="1.1" xmlns="http://www.w3.org/2000/svg" xmlns:xlink="http://www.w3.org/1999/xlink">
    <!-- Generator: Sketch 61 (89581) - https://sketch.com -->
    <title>ic_search_big</title>
    <desc>Created with Sketch.</desc>
    <g id="UI-PWA" stroke="none" stroke-width="1" fill="none" fill-rule="evenodd" fill-opacity="0.85">
        <g id="Home" transform="translate(-248.000000, -239.000000)" fill="#000000" fill-rule="nonzero">
            <g id="Group-3" transform="translate(42.000000, 211.000000)">
                <g id="ic_search_big" transform="translate(166.000000, 0.000000)">
                    <path d="M82.2734375,72.9921875 C83.5859375,72.9921875 84.453125,71.984375 84.453125,70.765625 C84.453125,70.203125 84.265625,69.640625 83.84375,69.21875 L71.9609375,57.3359375 C74.421875,54.2890625 75.875,50.4453125 75.875,46.25 C75.875,36.5 67.90625,28.5078125 58.1328125,28.5078125 C48.359375,28.5078125 40.390625,36.5 40.390625,46.25 C40.390625,56.0234375 48.359375,63.9921875 58.1328125,63.9921875 C62.140625,63.9921875 65.8203125,62.65625 68.796875,60.40625 L80.7265625,72.359375 C81.125,72.7578125 81.6875,72.9921875 82.2734375,72.9921875 Z M58.1328125,61.015625 C50.0234375,61.015625 43.3671875,54.359375 43.3671875,46.25 C43.3671875,38.1640625 50.0234375,31.484375 58.1328125,31.484375 C66.2421875,31.484375 72.8984375,38.1640625 72.8984375,46.25 C72.8984375,54.359375 66.2421875,61.015625 58.1328125,61.015625 Z"></path>
                </g>
            </g>
        </g>
    </g>
</svg>