<?xml version="1.0" encoding="UTF-8"?>
<svg width="56px" height="56px" viewBox="0 0 56 56" version="1.1" xmlns="http://www.w3.org/2000/svg" xmlns:xlink="http://www.w3.org/1999/xlink">
    <!-- Generator: Sketch 61 (89581) - https://sketch.com -->
    <title>ic_scan_medium</title>
    <desc>Created with Sketch.</desc>
    <g id="UI-PWA" stroke="none" stroke-width="1" fill="none" fill-rule="evenodd">
        <g id="Search" transform="translate(-303.000000, -1571.000000)">
            <g id="ic_scan_medium" transform="translate(303.000000, 1571.000000)">
                <circle id="Oval" fill="#F7B500" cx="28" cy="28" r="28"></circle>
                <path d="M39.2485352,24.7109375 C39.7890625,24.7109375 40.065918,24.4208984 40.065918,23.8803711 L40.065918,20.5053711 C40.065918,17.9609375 38.7607422,16.6557617 36.1899414,16.6557617 L32.8017578,16.6557617 C32.2744141,16.6557617 31.9711914,16.9458008 31.9711914,17.4599609 C31.9711914,17.9873047 32.2744141,18.2773438 32.8017578,18.2773438 L36.1503906,18.2773438 C37.6005859,18.2773438 38.4443359,19.0683594 38.4443359,20.5844727 L38.4443359,23.8803711 C38.4443359,24.4208984 38.734375,24.7109375 39.2485352,24.7109375 Z M17.1791992,24.7109375 C17.706543,24.7109375 17.996582,24.4208984 17.996582,23.8803711 L17.996582,20.5844727 C17.996582,19.0683594 18.8007812,18.2773438 20.2773438,18.2773438 L23.6259766,18.2773438 C24.1665039,18.2773438 24.456543,17.9873047 24.456543,17.4599609 C24.456543,16.9458008 24.1665039,16.6557617 23.6259766,16.6557617 L20.2509766,16.6557617 C17.6801758,16.6557617 16.3618164,17.9477539 16.3618164,20.5053711 L16.3618164,23.8803711 C16.3618164,24.4208984 16.6518555,24.7109375 17.1791992,24.7109375 Z M23.1381836,33.5571289 L23.1381836,23.4453125 L22.2548828,23.4453125 L22.2548828,33.5571289 L23.1381836,33.5571289 Z M26.0517578,33.5571289 L26.0517578,23.4453125 L24.2983398,23.4453125 L24.2983398,33.5571289 L26.0517578,33.5571289 Z M27.9106445,33.5571289 L27.9106445,23.4453125 L26.8164062,23.4453125 L26.8164062,33.5571289 L27.9106445,33.5571289 Z M30.5737305,33.5571289 L30.5737305,23.4453125 L28.8862305,23.4453125 L28.8862305,33.5571289 L30.5737305,33.5571289 Z M32.6040039,33.5571289 L32.6040039,23.4453125 L31.2724609,23.4453125 L31.2724609,33.5571289 L32.6040039,33.5571289 Z M33.9487305,33.5571289 L33.9487305,23.4453125 L33.1049805,23.4453125 L33.1049805,33.5571289 L33.9487305,33.5571289 Z M23.6259766,40.3598633 C24.1665039,40.3598633 24.456543,40.0698242 24.456543,39.5424805 C24.456543,39.0151367 24.1665039,38.7250977 23.6259766,38.7250977 L20.2773438,38.7250977 C18.8007812,38.7250977 17.996582,37.9472656 17.996582,36.4179688 L17.996582,33.1220703 C17.996582,32.5947266 17.706543,32.2915039 17.1791992,32.2915039 C16.6386719,32.2915039 16.3618164,32.5947266 16.3618164,33.1220703 L16.3618164,36.5102539 C16.3618164,39.0546875 17.6801758,40.3598633 20.2509766,40.3598633 L23.6259766,40.3598633 Z M36.1899414,40.3598633 C38.7607422,40.3598633 40.065918,39.0415039 40.065918,36.5102539 L40.065918,33.1220703 C40.065918,32.5947266 39.7758789,32.2915039 39.2485352,32.2915039 C38.7211914,32.2915039 38.4443359,32.5947266 38.4443359,33.1220703 L38.4443359,36.4179688 C38.4443359,37.9472656 37.6005859,38.7250977 36.1503906,38.7250977 L32.8017578,38.7250977 C32.2744141,38.7250977 31.9711914,39.0151367 31.9711914,39.5424805 C31.9711914,40.0698242 32.2744141,40.3598633 32.8017578,40.3598633 L36.1899414,40.3598633 Z" fill="#000000" fill-rule="nonzero"></path>
            </g>
        </g>
    </g>
</svg>