<?xml version="1.0" encoding="UTF-8"?>
<svg width="49px" height="49px" viewBox="0 0 49 49" version="1.1" xmlns="http://www.w3.org/2000/svg" xmlns:xlink="http://www.w3.org/1999/xlink">
    <!-- Generator: Sketch 61 (89581) - https://sketch.com -->
    <title>ic_success</title>
    <desc>Created with Sketch.</desc>
    <g id="UI-PWA" stroke="none" stroke-width="1" fill="none" fill-rule="evenodd">
        <g id="Completed" transform="translate(-163.000000, -51.000000)" fill="#33B272" fill-rule="nonzero">
            <path d="M187.5,100 C200.910269,100 212,88.9102692 212,75.5 C212,62.0897308 200.910269,51 187.475573,51 C174.065304,51 163,62.0897308 163,75.5 C163,88.9102692 174.089731,100 187.5,100 Z M185.857594,85.42888 C185.222499,85.42888 184.733965,85.2089859 184.17215,84.6152716 L176.722001,76.5451558 C176.42888,76.2153146 176.257893,75.7975157 176.257893,75.4236956 C176.257893,74.5880978 176.990695,73.9943835 177.796776,73.9943835 C178.358591,73.9943835 178.822699,74.1702988 179.26238,74.6980448 L185.784314,81.9105734 L198.019008,68.5280659 C198.385409,67.9783304 198.873943,67.7144574 199.386904,67.7144574 C200.217413,67.7144574 201.023494,68.220214 201.023494,69.0558118 C201.023494,69.4296319 200.803654,69.8254414 200.559387,70.1772721 L187.445331,84.5932822 C187.030076,85.165007 186.492689,85.42888 185.857594,85.42888 Z" id="ic_success"></path>
        </g>
    </g>
</svg>