<?xml version="1.0" encoding="UTF-8"?>
<svg width="24px" height="24px" viewBox="0 0 24 24" version="1.1" xmlns="http://www.w3.org/2000/svg" xmlns:xlink="http://www.w3.org/1999/xlink">
    <!-- Generator: Sketch 61 (89581) - https://sketch.com -->
    <title>ic_wishlist</title>
    <desc>Created with Sketch.</desc>
    <g id="UI-PWA" stroke="none" stroke-width="1" fill="none" fill-rule="evenodd">
        <g id="Detail" transform="translate(-18.000000, -56.000000)" fill="#979797" fill-rule="nonzero">
            <g id="Group" transform="translate(18.000000, 56.000000)">
                <path d="M15.9343997,2.00686479 C14.2722098,2.07872311 12.8550904,2.86493646 11.8380158,4.19637536 L11.717,4.361 L11.6010509,4.20275521 C10.5415523,2.80797404 9.016536,2.00146484 7.24414062,2.00146484 C3.69554976,2.00146484 1.03271484,4.84404111 1.03271484,8.69482422 C1.03271484,13.0948616 4.51441363,17.5191799 10.7075448,21.4722424 C11.0472014,21.6825619 11.4081191,21.8276367 11.7148438,21.8276367 C12.0181959,21.8276367 12.3654948,21.6893915 12.7177436,21.4812445 C18.9183869,17.5167248 22.3969727,13.0929008 22.3969727,8.69482422 C22.3969727,4.84404111 19.7341377,2.00146484 16.1855469,2.00146484 L15.9343997,2.00686479 Z M16.1855469,3.00146484 C19.1667252,3.00146484 21.3969727,5.38225405 21.3969727,8.69482422 C21.3969727,12.6741088 18.1219865,16.8390089 12.1940219,20.6295369 C12.0006536,20.7434402 11.7891355,20.8276367 11.7148438,20.8276367 C11.6404232,20.8276367 11.4282775,20.7423625 11.2397398,20.6256487 C5.31047214,16.8409533 2.03271484,12.6757906 2.03271484,8.69482422 C2.03271484,5.38225405 4.26296235,3.00146484 7.24414062,3.00146484 C8.97136185,3.00146484 10.4028453,3.93144218 11.2753849,5.53926805 L11.711303,6.34253286 L12.1526713,5.54224977 C13.0476593,3.91946939 14.4596033,3.00146484 16.1855469,3.00146484 Z" id="ic_wishlist"></path>
            </g>
        </g>
    </g>
</svg>